<svg data-bbox="43 29.5 114 141" viewBox="0 0 200 200" height="200" width="200" xmlns="http://www.w3.org/2000/svg" data-type="shape">
                                                                                                    <g>
                                                                                                        <path d="M139.75 42.8h-9.25v-2.65c0-5.873-4.767-10.65-10.625-10.65h-39.75c-5.858 0-10.625 4.777-10.625 10.65v2.65h-9.25C50.738 42.8 43 50.561 43 60.1v93.1c0 9.539 7.738 17.3 17.25 17.3h79.5c9.512 0 17.25-7.761 17.25-17.3V60.1c0-9.539-7.738-17.3-17.25-17.3zM77.5 40.15c0-1.461 1.178-2.65 2.625-2.65h39.75c1.447 0 2.625 1.189 2.625 2.65v13.3c0 1.461-1.178 2.65-2.625 2.65h-39.75c-1.447 0-2.625-1.189-2.625-2.65v-13.3zM149 153.2c0 5.128-4.149 9.3-9.25 9.3h-79.5c-5.101 0-9.25-4.172-9.25-9.3V60.1c0-5.128 4.149-9.3 9.25-9.3h9.25v2.65c0 5.873 4.767 10.65 10.625 10.65h39.75c5.858 0 10.625-4.777 10.625-10.65V50.8h9.25c5.101 0 9.25 4.172 9.25 9.3v93.1z">
                                                                                                        </path>
                                                                                                    </g>
                                                                                                </svg>