<svg preserveAspectRatio="xMidYMid meet" data-bbox="0.026 0.032 280.72 303.795" viewBox="0.026 0.032 280.72 303.795" xmlns="http://www.w3.org/2000/svg" data-type="color" role="presentation" aria-hidden="true" aria-label="">
                                                                <g>
                                                                    <path d="M273.59 55.62c-.19-.54-.44-1.03-.71-1.51-.98-1.7-2.37-3.13-3.04-5-1.69-4.61-4.83-8.25-8.06-11.8-.91-1-1.43-2.49-3.03-2.72-.19-.08-.36-.21-.51-.35-.45-.47-.9-.95-1.46-1.31-.15-.12-.3-.26-.44-.39-.4-.32-.77-.66-1.14-1.02-4.13-4.84-9.54-7.79-15.12-10.62-6.76-3.43-13.81-6.01-21.05-8.14-1.5-.44-3.07-.46-4.56-.91-.66-.17-1.29-.42-1.93-.66-.25-.03-.49-.06-.74-.07C199 8.07 186 6.48 172.9 5.48c-7.92-.61-15.84-.71-23.77-.91-4.37-.11-8.74-.44-13.11-.34-21.36.51-42.67 1.62-63.66 6.01-1.16.24-2.34.37-3.51.57-9.41 2.73-18.89 5.23-27.67 9.85-6.26 3.3-12.26 6.83-17.27 11.88-4.56 4.73-9.6 9.05-12.58 15.11-.56 1.13-1.15 2.24-1.5 3.46-1.77 1.8-2.6 4.03-3.24 6.45-1.25 4.79-3.2 9.44-3.4 14.43-.51 12.92.87 25.43 8.84 36.31 1.1 1.5 2.4 2.83 3.82 4.01 1.07.89 1.34 1.85.93 3.13-.78 2.42-.66 4.83.24 7.18.37.96.41 1.86.09 2.8-1.57 5.06-2 10.33-2.78 15.53-1.27 8.38-2.47 16.77-3.42 25.19-.46 4.05-.82 8.12-1.04 12.2-.28 5.36-1.27 10.67-1.74 16.02-.73 8.27-1.46 16.53-2.07 24.81-1 13.78-.42 27.58-.36 41.36.03 7.06 1.49 14.03 4.1 20.64 2.9 7.36 8.21 11.93 16.13 13.46 10.28 1.97 20.62 3.27 31.07 4.02 11.09.79 22.18 1.32 33.29 1.78 5.84.24 11.7.27 17.54.82.74.07 3.45.08 4.07.07 2.89-.04 5.74-.57 8.64-.56 12.3.03 24.6 0 36.89.02 3.78 0 7.53.59 11.31.51.8-.02 6.53-.46 8.69-.45 9.94.07 19.86-.53 29.76-1.07 15.97-.86 31.95-1.85 47.68-5.21 8.1-1.73 13.38-6.32 16.2-13.94 2.63-7.1 3.8-14.5 3.91-22.01.17-10.9.16-21.8 0-32.7-.1-6.96-1.11-13.88-1.49-20.83-.62-11.48-2.63-22.81-3.5-34.26-.78-10.26-2.4-20.46-4.06-30.63-.8-4.9-1.6-9.8-2.6-14.67-.01-.59-.29-1.22-.06-1.76 1.27-3.07 1.47-6.16.45-9.35-.28-.88.3-1.55.96-2.1 4.38-3.6 7.13-7.99 9.01-12.82 1.44-3.71 2.37-7.68 3.12-11.74 2.04-11.05.41-21.68-3.23-32.16Z" fill="#e3c693" data-color="1"></path>
                                                                    <path d="M268.12 113.51c2.17-2.06 4.08-4.29 5.7-6.7-.04-2.43-.08-4.86-.11-7.29-1.88 4.83-4.63 9.22-9.01 12.82-.66.54-1.24 1.22-.96 2.1 1.02 3.19.83 6.27-.45 9.35-.22.54.05 1.17.06 1.76 1 4.86 1.8 9.76 2.6 14.67 1.66 10.17 3.27 20.37 4.06 30.63.87 11.46 2.88 22.78 3.5 34.26.38 6.95 1.39 13.87 1.49 20.83.16 10.9.17 21.8 0 32.7-.12 7.52-1.29 14.92-3.91 22.01-2.82 7.61-8.1 12.21-16.2 13.94-15.73 3.36-31.71 4.35-47.68 5.21-9.9.54-19.82 1.14-29.76 1.07-2.16-.02-7.89.43-8.69.45-3.78.08-7.54-.5-11.31-.51-12.3-.02-24.6 0-36.89-.02-2.9 0-5.75.52-8.64.56-.62 0-3.33 0-4.07-.07-5.83-.54-11.69-.57-17.54-.82-11.1-.46-22.2-.99-33.29-1.78-10.45-.75-20.79-2.04-31.07-4.02-7.92-1.52-13.23-6.09-16.13-13.46-2.61-6.61-4.07-13.57-4.1-20.64-.06-13.79-.64-27.59.36-41.36.6-8.28 1.34-16.54 2.07-24.81.47-5.36 1.46-10.66 1.74-16.02.21-4.08.58-8.15 1.04-12.2.95-8.42 2.15-16.81 3.42-25.19.79-5.2 1.21-10.47 2.78-15.53.32-.95.28-1.84-.09-2.8-.9-2.35-1.02-4.76-.24-7.18.41-1.28.14-2.24-.93-3.13-1.42-1.18-2.72-2.51-3.82-4.01C4.08 97.45 2.7 84.94 3.21 72.02c.2-5 2.15-9.64 3.4-14.43.63-2.42 1.46-4.64 3.24-6.45.35-1.22.94-2.33 1.5-3.46 2.97-6.06 8.02-10.38 12.58-15.11 5.01-5.05 11.01-8.59 17.27-11.88 8.78-4.63 18.25-7.12 27.67-9.85 1.16-.21 2.35-.33 3.51-.57 21-4.39 42.3-5.5 63.66-6.01 4.37-.1 8.74.23 13.11.34 7.93.2 15.85.3 23.77.91 13.1 1.01 26.1 2.59 38.9 5.64.25.02.49.04.74.07.64.24 1.27.49 1.93.66 1.49.46 3.06.47 4.56.91 7.24 2.13 14.29 4.71 21.05 8.14 5.57 2.83 10.99 5.78 15.12 10.62.37.35.74.7 1.14 1.02.15.13 1.45 1.23 1.91 1.7.15.14 9.91 10.26 11.61 14.87.67 1.86 2.06 3.29 3.04 5-.06-2.65-.13-5.3-.2-7.95-.07-.13-.15-.27-.23-.4v2.54-2.54c-1.27-2.23-2.7-4.39-4.3-6.48-4.04-5.27-8.41-10.2-13.88-14.02-3.58-2.51-7.25-4.9-10.99-7.18-7.48-4.55-15.68-7.41-24.09-9.63-18.96-5.02-38.34-7.08-57.87-7.97-13.94-.63-27.89-.64-41.84-.01-15.66.7-31.23 2.22-46.61 5.34-7.05 1.43-14.01 3.2-20.84 5.53-8.16 2.79-15.47 7.09-22.57 11.87-3.4 2.29-6.69 4.67-9.57 7.59C12.55 38.32 6.6 46.7 3.48 56.9 1.91 62.03.8 67.21.35 72.57c-.64 7.74-.43 15.39 1.52 22.97 1.8 7.04 5.44 12.95 10.67 17.9.93.88 1.23 1.56.91 2.84-.62 2.46-.9 4.97.69 7.27.37.53.36 1.16-.21 1.6-.36.28-.63.61-.89.95-5.91 23.63-2.49 48.12-7.94 71.71 0 6.56-1.81 21.15-1.83 21.79-.5 6.51-.97 13.02-1.5 19.53-.8 9.72-.72 19.42.61 29.09.7 5.07 1.65 10.11 3.79 14.81 2.22 4.89 5.61 8.65 10.46 11.11 3.4 1.72 6.95 2.94 10.66 3.78 10.6 2.41 21.39 3.34 32.2 4.04 5.7.37 11.39.84 17.11.97 1.29.03 22.28-.3 32.49.78.03 0 .06-.02.09-.02 1.55.02 3.1.09 4.65.06 17.38-.38 34.76-.4 52.14 0 1.84.04 3.69.18 5.54-.06.67 0 31.71-.66 32.87-.74 3.26-.2 6.52-.34 9.78-.56 9.84-.68 19.7-1.17 29.47-2.69 4.99-.77 9.97-1.6 14.77-3.2 5.59-1.86 10.61-4.59 14.02-9.67 2.05-3.07 3.31-6.45 4.2-9.99 2.89-11.42 3.19-23.05 2.51-34.71-.27-4.64-.64-9.28-1.02-13.91-.03 1.01-.06 2.01-.06 3.02 0-1.01.02-2.01.06-3.02-.3-3.57-.6-7.14-.88-10.72-.04-.45-8.81-72.32-10.32-91.17v.93-2.11c-.05-.06-.1-.12-.15-.17-.43-.44-.35-.93-.06-1.43 1.43-2.42 1.25-5 .59-7.55-.29-1.14.08-1.72.85-2.45Z" fill="#0a0a0a" data-color="2"></path>
                                                                    <path d="M273.59 55.62c3.64 10.48 5.27 21.1 3.23 32.16-.75 4.07-1.68 8.03-3.12 11.74.04 2.43.07 4.86.11 7.29a35 35 0 0 0 4.52-9.47c2.87-9.51 2.89-19.19 1.58-28.89-1.07-7.94-3.39-15.42-7.23-22.29.07 2.65.14 5.3.2 7.95.28.48.53.97.71 1.51" fill="#0a0a0a" data-color="2"></path>
                                                                </g>
                                                            </svg>