<svg preserveAspectRatio="xMidYMid meet" data-bbox="0 0 179.779 54.034" viewBox="0 0 179.779 54.034" xmlns="http://www.w3.org/2000/svg" data-type="color" role="presentation" aria-hidden="true" aria-label="">
                                                                <g>
                                                                    <path d="M16.88 0h6.11c1.87 1.22 2.85 2.92 2.62 4.76 3.09.99 5.88 1.88 8.74 2.79.79-2.14 2.69-3.09 4.95-3.22 3.28-.19 6.57-.27 9.85-.17 5.56.17 11.16.35 15.83 4.43.93-3.06 3.24-4.19 6-4.85 6.13-1.48 9.36.23 11.11 6.25.8 2.74 1.24 5.57 1.95 8.83.56-1.94 1.08-3.43 1.41-4.96 1.39-6.32 2.44-7.14 8.89-6.67.42.03.83.09 1.25.14 2.38.28 3.75 1.63 4.23 3.94.39 1.85.8 3.7 1.2 5.55.4-.59.48-1.18.63-1.74.73-2.62 1.29-5.31 2.27-7.84 1.03-2.63 3.32-3.95 6.12-3.86 3.09.1 6.23.36 8.74 2.69 1.76-1.77 3.9-2.19 6.27-2.16 5.09.06 10.18.03 15.26-.02 1.85-.02 3.59.17 4.82 1.6.94-.31 1.78-.81 2.62-.83 5.36-.08 10.73-.28 16.08 0 8.23.42 13.92 7.3 15.4 14.06.59 2.68.39 5.54.52 8.32.29 6.11-1.62 11.49-6.16 15.57-5.7 5.13-12.69 6.9-20.26 6.46-2.82-.16-5.79.43-8.06-1.42-1.03.37-1.85.91-2.68.93-6.33.19-12.67.42-19 .34-4.13-.05-6.05-2.22-6.13-6.34-.08-3.99-.03-7.98-.05-11.97 0-.34-.1-.69-.23-1.55-.26.73-.36.93-.41 1.14-.93 4.04-1.8 8.1-2.79 12.13-1.17 4.72-4.73 6.63-9.16 7.3-4.03.61-7.29-.78-9.62-4.15-.93-1.34-1.81-2.72-2.8-4.22-.59.97-1.09 1.76-1.57 2.58-3.61 6.25-8.4 7.06-14.83 4.48-2.15-.86-3.7-2.42-4.51-4.59-.58-1.55-1.03-3.16-1.44-4.77-.54-2.1-.99-4.23-1.47-6.35-.34 1.92-.26 3.8-.36 5.67-.32 6.06-4.14 10.52-10.16 11.03-6.12.52-12.29.54-18.44.52-3.29-.01-4.53-1.57-4.78-5.01-.13-1.78-.25-3.55-.39-5.6-2.78 6.28-3.46 6.91-9.54 9.31-.46.18-.9.72-1.09 1.2-1.37 3.42-3.17 4.52-7.13 4.27-2.46-.15-3.47-1.28-4.27-4.72C7.29 47.8 1.63 47.23 0 40.76v-6.08c.67-1.82 1.35-3.64 2.01-5.47.08-.22.18-.51.1-.68-1.43-2.85-.89-5.9-1.14-8.9-.32-3.72.76-6.75 3.07-9.53 2.45-2.96 5.71-4.37 9.61-4.87-.64-2.89.99-4.27 3.25-5.23Zm66.63 27.03c-.14-.02-.29-.05-.43-.07-.28-2-.47-4.02-.85-6-.77-4.03-1.47-8.08-2.52-12.03-.72-2.71-2.31-3.81-4.81-3.7-1.77.08-3.57.41-5.27.91-2.22.66-3 2.12-2.59 4.41.36 2.05.79 4.09 1.24 6.13 1.41 6.39 2.83 12.78 4.27 19.17.58 2.55 1.79 4.63 4.37 5.72 5.52 2.34 9.27 1.2 12.31-3.91.91-1.53 1.65-3.17 2.47-4.75.23-.43.48-.85.72-1.28 1.33 2.42 2.47 4.79 3.88 6.98 2.46 3.8 4.89 4.65 9.35 3.78 3.52-.69 5.83-2.52 6.62-6.13.65-2.96 1.46-5.89 2.11-8.86a840 840 0 0 0 3.43-16.43c.58-2.94-.25-4.24-3.13-5.03a17.6 17.6 0 0 0-3.88-.58c-3.27-.12-4.9 1.01-5.81 4.13-.64 2.16-1.12 4.38-1.51 6.61-.63 3.65-1.13 7.33-1.68 10.99-.47-.53-.73-1.11-.87-1.72-1-4.53-2.01-9.06-2.93-13.6-.32-1.55-1.06-2.47-2.71-2.55-.71-.04-1.42-.21-2.13-.25-4.05-.26-4.58.27-5.62 4.23-1.21 4.64-2.67 9.23-4.02 13.84Zm-22.97-2.17c1.07-.84 2.17-1.48 2.98-2.38 4.76-5.32 2.32-13.35-4.8-15.23-6.3-1.66-12.8-1.55-19.25-1.05-2.81.22-3.5 1.16-3.47 3.98.08 6.91.25 13.82.42 20.72.07 2.86.11 5.72.33 8.57.23 2.94.77 3.36 3.68 3.36 3.77 0 7.54.08 11.3-.08 2.73-.11 5.52-.28 8.17-.92 3.92-.94 6.29-4.58 6.43-9.1.12-3.94-1.59-6.3-5.79-7.87M14.9 42.48c-.52 3.18-.29 3.96 1.42 4.38 3.33.81 4.87-.4 6.23-4.88 1.11-.31 2.24-.52 3.28-.94s2.07-.96 2.99-1.6c4.31-2.99 4.89-9.12.88-12.46-1.89-1.57-4.46-2.39-6.82-3.32-2.04-.81-4.25-1.18-6.32-1.94-1.44-.52-1.81-1.84-1.58-3.25s1.3-2.12 2.56-2.03c1.76.12 3.52.49 5.24.94 1.96.51 3.85 1.3 5.81 1.79 1.83.46 3.33-.25 4.26-1.88 2.56-4.47 2.04-8.05-3.55-9.53-1.26-.33-2.58-.46-3.88-.66-.57-.09-1.14-.12-1.68-.17-.38-5.16-.93-5.65-5.42-5.09-2.78.35-3.07.97-2.32 5.04-1.52.22-3.08.3-4.55.69-4.56 1.21-7.59 4.19-8.51 8.75C2.03 20.81 4 24.4 7.86 26.78c1.6.99 3.44 1.66 5.25 2.22 1.93.59 3.99.79 5.94 1.34.54.15.89.93 1.33 1.43-.53.39-1.09 1.16-1.59 1.12-1.88-.15-3.81-.36-5.6-.92-2.27-.71-4.44-1.76-6.63-2.72-1.2-.52-2.07-.13-2.82.81-2.9 3.61-2.02 7.88 2.07 9.98.58.3 1.19.6 1.82.75 2.41.6 4.84 1.14 7.28 1.71Zm131.17-17.77h.27c0 4.94.05 9.88-.03 14.82-.02 1.38.58 2.11 1.79 2.19 5.07.37 10.16.84 15.14-.71 10.3-3.21 15.45-10.35 14.56-20.11-.65-7.09-6.72-13.75-13.59-14.39-4.69-.44-9.44-.41-14.16-.34-3.41.05-3.93.71-3.97 4.07-.05 4.82-.01 9.65-.01 14.47m-17.11-8.59c4.09 0 7.91.01 11.73 0 2.31 0 2.89-.43 3.19-2.69.2-1.52.25-3.09.17-4.63-.12-2.49-.66-3.01-3.2-3.04-5.32-.06-10.65-.07-15.97-.03-3.93.03-5.48 1.31-5.54 5.18-.14 8.99-.09 17.98 0 26.97.03 2.69 1.04 3.84 3.69 3.89 6.33.1 12.66-.1 18.99-.17 1.14-.01 1.59-.65 1.59-1.69 0-2.02.02-4.05-.01-6.07-.06-3.1-.07-3.1-3.1-3.1h-11.61c-.06-.91-.14-1.99-.22-3.26h5.74c4.72 0 4.87-.15 4.8-4.77-.04-2.37-.3-2.62-2.73-2.61h-7.53v-3.97Zm12.13 12.65c1.11.13 2.01.24 2.84.34v-6.47q-3.06.76-2.96 3.69c.03.76.07 1.53.11 2.44ZM34.11 24.33c-1.05.73-1.74 1.2-2.42 1.67.84 1.33 1.57 2.5 2.3 3.66.13-.03.27-.05.4-.08-.09-1.6-.17-3.2-.28-5.25" fill="#000000" data-color="1"></path>
                                                                    <path d="M83.51 27.03c1.35-4.61 2.8-9.19 4.02-13.84 1.04-3.97 1.56-4.5 5.62-4.23.71.05 1.42.22 2.13.25 1.65.09 2.39 1 2.71 2.55.93 4.54 1.94 9.07 2.93 13.6.13.61.4 1.19.87 1.72.55-3.67 1.05-7.34 1.68-10.99.38-2.22.87-4.44 1.51-6.61.92-3.13 2.55-4.25 5.81-4.13 1.3.05 2.63.24 3.88.58 2.88.78 3.71 2.09 3.13 5.03-1.09 5.49-2.24 10.96-3.43 16.43-.64 2.96-1.46 5.89-2.11 8.86-.79 3.6-3.1 5.44-6.62 6.13-4.46.87-6.89.03-9.35-3.78-1.42-2.19-2.55-4.56-3.88-6.98-.24.43-.49.85-.72 1.28-.82 1.58-1.56 3.22-2.47 4.75-3.05 5.11-6.8 6.25-12.31 3.91-2.58-1.09-3.8-3.17-4.37-5.72-1.44-6.38-2.86-12.78-4.27-19.17-.45-2.03-.88-4.07-1.24-6.13-.41-2.29.37-3.76 2.59-4.41 1.7-.5 3.5-.83 5.27-.91 2.51-.11 4.1.99 4.81 3.7 1.05 3.96 1.75 8.01 2.52 12.03.38 1.98.57 4 .85 6 .14.02.29.05.43.07Z" fill="#ffffff" data-color="2"></path>
                                                                    <path d="M60.54 24.86c4.2 1.57 5.91 3.92 5.79 7.87-.14 4.53-2.5 8.16-6.43 9.1-2.64.64-5.43.8-8.17.92-3.76.16-7.53.08-11.3.08-2.91 0-3.45-.42-3.68-3.36-.22-2.85-.26-5.71-.33-8.57-.16-6.91-.33-13.81-.42-20.72-.03-2.82.66-3.76 3.47-3.98 6.45-.5 12.95-.61 19.25 1.05 7.12 1.88 9.57 9.91 4.8 15.23-.81.9-1.91 1.54-2.98 2.38M48.69 35.71c2.49-.11 4.93.47 6.47-1.73.88-1.26 1.09-2.92.07-4.19-1.7-2.13-4.2-1.68-6.54-1.76zm-.2-21.2v7.84c1.67-.25 3.23-.28 4.65-.74 1.66-.53 2.65-2.37 2.43-3.97-.23-1.67-1.41-2.43-2.93-2.69-1.32-.23-2.67-.29-4.15-.45Z" fill="#ffffff" data-color="2"></path>
                                                                    <path d="M14.9 42.48c-2.44-.57-4.87-1.11-7.28-1.71-.63-.16-1.23-.45-1.82-.75-4.09-2.1-4.97-6.37-2.07-9.98.75-.94 1.62-1.33 2.82-.81 2.19.95 4.36 2 6.63 2.72 1.79.56 3.72.77 5.6.92.5.04 1.06-.72 1.59-1.12-.44-.49-.79-1.28-1.33-1.43-1.95-.55-4-.75-5.94-1.34-1.81-.55-3.65-1.23-5.25-2.22C4 24.37 2.03 20.79 2.93 16.3c.92-4.56 3.95-7.53 8.51-8.75 1.47-.39 3.03-.47 4.55-.69-.75-4.07-.46-4.69 2.32-5.04 4.49-.57 5.04-.07 5.42 5.09.54.05 1.12.08 1.68.17 1.3.2 2.61.33 3.88.66 5.59 1.48 6.11 5.06 3.55 9.53-.93 1.63-2.44 2.34-4.26 1.88-1.96-.49-3.85-1.29-5.81-1.79-1.72-.44-3.48-.81-5.24-.94-1.27-.09-2.34.63-2.56 2.03-.23 1.42.14 2.73 1.58 3.25 2.07.75 4.28 1.13 6.32 1.94 2.36.93 4.93 1.75 6.82 3.32 4.01 3.35 3.43 9.47-.88 12.46-.92.64-1.94 1.18-2.99 1.6s-2.17.63-3.28.94c-1.36 4.48-2.9 5.69-6.23 4.88-1.71-.42-1.94-1.2-1.42-4.38Z" fill="#ffffff" data-color="2"></path>
                                                                    <path d="M146.07 24.71c0-4.82-.04-9.65.01-14.47.04-3.35.55-4.02 3.97-4.07 4.72-.07 9.47-.1 14.16.34 6.87.64 12.94 7.3 13.59 14.39.89 9.76-4.26 16.9-14.56 20.11-4.98 1.55-10.07 1.08-15.14.71-1.21-.09-1.81-.81-1.79-2.19.08-4.94.03-9.88.03-14.82zm10.08 5.76c4.48.24 9.26-2.99 10.48-6.81.86-2.7-.14-5.16-2.68-6.46-2.26-1.15-4.62-1.01-6.98-.41-.33.08-.79.61-.79.93-.05 4.26-.04 8.52-.04 12.75Z" fill="#ffffff" data-color="2"></path>
                                                                    <path d="M128.96 16.12v3.97h7.53c2.42 0 2.69.24 2.73 2.61.07 4.62-.08 4.78-4.8 4.77h-5.74c.09 1.27.16 2.35.22 3.26h11.61c3.03 0 3.04 0 3.1 3.1.04 2.02.02 4.05.01 6.07 0 1.05-.45 1.68-1.59 1.69-6.33.07-12.66.27-18.99.17-2.66-.04-3.67-1.2-3.69-3.89-.09-8.99-.14-17.98 0-26.97.06-3.87 1.61-5.16 5.54-5.18 5.32-.04 10.65-.03 15.97.03 2.54.03 3.08.55 3.2 3.04.08 1.54.03 3.1-.17 4.63-.3 2.26-.88 2.68-3.19 2.69-3.82.02-7.64 0-11.73 0Z" fill="#ffffff" data-color="2"></path>
                                                                    <path d="M48.69 35.71v-7.68c2.34.09 4.84-.37 6.54 1.76 1.01 1.27.81 2.93-.07 4.19-1.54 2.2-3.98 1.62-6.47 1.73" fill="#000000" data-color="1"></path>
                                                                    <path d="M48.49 14.51c1.48.15 2.83.22 4.15.45 1.52.26 2.69 1.02 2.93 2.69.22 1.6-.76 3.44-2.43 3.97-1.42.45-2.98.49-4.65.74v-7.84Z" fill="#000000" data-color="1"></path>
                                                                    <path d="M156.15 30.47c0-4.24-.02-8.49.04-12.75 0-.32.46-.85.79-.93 2.36-.59 4.73-.74 6.98.41 2.54 1.3 3.54 3.75 2.68 6.46-1.22 3.82-6 7.05-10.48 6.81Zm2.01-2.27c2.06.1 4.54-1.42 5.53-3.59.14-.31.04-.67-.23-.88-1.7-1.31-3.33-1.48-5.05-.5a.5.5 0 0 0-.25.44z" fill="#000000" data-color="1"></path>
                                                                </g>
                                                            </svg>